<svg width="3468" height="2053" xmlns="http://www.w3.org/2000/svg" xmlns:xlink="http://www.w3.org/1999/xlink" xml:space="preserve" overflow="hidden"><g transform="translate(-466 -497)"><path d="M2740.5 662.5C2740.5 573.582 2812.58 501.5 2901.5 501.5 2990.42 501.5 3062.5 573.582 3062.5 662.5 3062.5 751.418 2990.42 823.5 2901.5 823.5 2812.58 823.5 2740.5 751.418 2740.5 662.5Z" stroke="#042433" stroke-width="6.875" stroke-miterlimit="8" fill="#156082" fill-rule="evenodd"/><text fill="#FFFFFF" font-family="Malgun Gothic,Malgun Gothic_MSFontService,sans-serif" font-weight="700" font-size="183" transform="matrix(1 0 0 1 2843.48 732)">b</text><path d="M2740.5 1652.5C2740.5 1563.58 2812.58 1491.5 2901.5 1491.5 2990.42 1491.5 3062.5 1563.58 3062.5 1652.5 3062.5 1741.42 2990.42 1813.5 2901.5 1813.5 2812.58 1813.5 2740.5 1741.42 2740.5 1652.5Z" stroke="#042433" stroke-width="6.875" stroke-miterlimit="8" fill="#156082" fill-rule="evenodd"/><text fill="#FFFFFF" font-family="Malgun Gothic,Malgun Gothic_MSFontService,sans-serif" font-weight="700" font-size="183" transform="matrix(1 0 0 1 2843.48 1722)">d</text><path d="M1345.5 1652.5C1345.5 1563.58 1417.58 1491.5 1506.5 1491.5 1595.42 1491.5 1667.5 1563.58 1667.5 1652.5 1667.5 1741.42 1595.42 1813.5 1506.5 1813.5 1417.58 1813.5 1345.5 1741.42 1345.5 1652.5Z" stroke="#042433" stroke-width="6.875" stroke-miterlimit="8" fill="#156082" fill-rule="evenodd"/><text fill="#FFFFFF" font-family="Malgun Gothic,Malgun Gothic_MSFontService,sans-serif" font-weight="700" font-size="183" transform="matrix(1 0 0 1 1461.29 1722)">c</text><path d="M1345.5 662.5C1345.5 573.582 1417.58 501.5 1506.5 501.5 1595.42 501.5 1667.5 573.582 1667.5 662.5 1667.5 751.418 1595.42 823.5 1506.5 823.5 1417.58 823.5 1345.5 751.418 1345.5 662.5Z" stroke="#042433" stroke-width="6.875" stroke-miterlimit="8" fill="#156082" fill-rule="evenodd"/><text fill="#FFFFFF" font-family="Malgun Gothic,Malgun Gothic_MSFontService,sans-serif" font-weight="700" font-size="183" transform="matrix(1 0 0 1 1456.29 732)">a</text><path d="M1667.5 662.5 2740.87 662.5" stroke="#FF0000" stroke-width="20.625" stroke-miterlimit="8" fill="none" fill-rule="evenodd"/><path d="M1506.5 823.5 1506.5 1491.26" stroke="#FF0000" stroke-width="20.625" stroke-miterlimit="8" fill="none" fill-rule="evenodd"/><path d="M0 0 1073.37 0.000360892" stroke="#FF0000" stroke-width="20.625" stroke-miterlimit="8" fill="none" fill-rule="evenodd" transform="matrix(-1 0 0 1 2740.87 1652.5)"/><path d="M0 0 0.000360892 667.755" stroke="#FF0000" stroke-width="20.625" stroke-miterlimit="8" fill="none" fill-rule="evenodd" transform="matrix(1 0 0 -1 2901.5 1491.26)"/><path d="M2788.13 1538.52 1620.5 776.5" stroke="#FF0000" stroke-width="20.625" stroke-miterlimit="8" fill="none" fill-rule="evenodd"/><path d="M0 0 1167.63 762.015" stroke="#FF0000" stroke-width="20.625" stroke-miterlimit="8" fill="none" fill-rule="evenodd" transform="matrix(1 0 0 -1 1620.5 1538.52)"/><text font-family="Malgun Gothic,Malgun Gothic_MSFontService,sans-serif" font-weight="400" font-size="202" transform="matrix(1 0 0 1 589.735 2143)">8</text><text font-family="Malgun Gothic,Malgun Gothic_MSFontService,sans-serif" font-weight="400" font-size="202" transform="matrix(1 0 0 1 700.735 2143)">점</text><text font-family="Malgun Gothic,Malgun Gothic_MSFontService,sans-serif" font-weight="400" font-size="202" transform="matrix(1 0 0 1 973.735 2143)">이상을</text><text font-family="Malgun Gothic,Malgun Gothic_MSFontService,sans-serif" font-weight="400" font-size="202" transform="matrix(1 0 0 1 1649.74 2143)">획득한</text><text font-family="Malgun Gothic,Malgun Gothic_MSFontService,sans-serif" font-weight="400" font-size="202" transform="matrix(1 0 0 1 2325.74 2143)">사람</text><text font-family="Malgun Gothic,Malgun Gothic_MSFontService,sans-serif" font-weight="400" font-size="202" transform="matrix(1 0 0 1 2799.74 2143)">사이에서는</text><text font-family="Malgun Gothic,Malgun Gothic_MSFontService,sans-serif" font-weight="400" font-size="202" transform="matrix(1 0 0 1 871.735 2385)">어떻게</text><text font-family="Malgun Gothic,Malgun Gothic_MSFontService,sans-serif" font-weight="400" font-size="202" transform="matrix(1 0 0 1 1547.74 2385)">승패가</text><text font-family="Malgun Gothic,Malgun Gothic_MSFontService,sans-serif" font-weight="400" font-size="202" transform="matrix(1 0 0 1 2223.74 2385)">결정되었을까</text><text font-family="Malgun Gothic,Malgun Gothic_MSFontService,sans-serif" font-weight="400" font-size="202" transform="matrix(1 0 0 1 3435.74 2385)">?</text></g></svg>